<?xml version="1.0" encoding="UTF-8" standalone="no"?>
<svg
   height="100%"
   viewBox="0 -960 960 960"
   width="100%"
   fill="#e3e3e3"
   version="1.1"
   id="svg1"
   sodipodi:docname="volume_mute.svg"
   inkscape:version="1.4.2 (ebf0e940d0, 2025-05-08)"
   xmlns:inkscape="http://www.inkscape.org/namespaces/inkscape"
   xmlns:sodipodi="http://sodipodi.sourceforge.net/DTD/sodipodi-0.dtd"
   xmlns="http://www.w3.org/2000/svg"
   xmlns:svg="http://www.w3.org/2000/svg">
  <defs
     id="defs1" />
  <sodipodi:namedview
     id="namedview1"
     pagecolor="#ffffff"
     bordercolor="#000000"
     borderopacity="0.25"
     inkscape:showpageshadow="2"
     inkscape:pageopacity="0.0"
     inkscape:pagecheckerboard="0"
     inkscape:deskcolor="#d1d1d1"
     inkscape:zoom="0.42135417"
     inkscape:cx="396.34116"
     inkscape:cy="703.68356"
     inkscape:window-width="1067"
     inkscape:window-height="998"
     inkscape:window-x="0"
     inkscape:window-y="0"
     inkscape:window-maximized="1"
     inkscape:current-layer="svg1" />
  <path
     d="m 664.56494,-438.5886 -71.55473,81.47681 q -7.171,8.15455 -18.02675,8.35106 -10.84711,0.18667 -18.35466,-8.35106 -7.49893,-8.54756 -7.49893,-20.71061 0,-12.16307 7.49893,-20.71062 L 628.19215,-480 556.6288,-561.46699 q -7.16238,-8.16438 -7.32633,-20.52395 -0.1726,-12.34972 7.32633,-20.89728 7.50755,-8.53772 18.19069,-8.53772 10.6918,0 18.19072,8.53772 l 71.55473,81.47681 71.55473,-81.47681 q 7.17099,-8.15455 18.02674,-8.35105 10.85575,-0.18667 18.35467,8.35105 7.49892,8.54756 7.49892,20.71061 0,12.16307 -7.49892,20.71062 L 700.93772,-480 l 71.56336,81.46698 q 7.17101,8.16439 7.33496,20.52394 0.16396,12.34973 -7.33496,20.89729 -7.49892,8.53773 -18.19071,8.53773 -10.68314,0 -18.1907,-8.53773 z m -356.45334,56.83629 h -96.91644 q -13.341,0 -22.27239,-10.16863 Q 180,-402.07976 180,-417.27868 v -125.44266 q 0,-15.19891 8.92277,-25.35772 8.93139,-10.16863 22.27239,-10.16863 h 96.91644 l 103.28492,-117.59267 q 12.40903,-14.12802 28.57184,-6.4647 16.16281,7.67315 16.16281,27.77463 v 389.06086 q 0,20.10147 -16.16281,27.77462 -16.16281,7.66332 -28.57184,-6.46469 z"
     id="path1"
     style="stroke-width:0.920772" />
</svg>
