<?xml version="1.0" encoding="UTF-8" standalone="no"?>
<svg
   height="100%"
   viewBox="0 -960 960 960"
   width="100%"
   fill="#e3e3e3"
   version="1.1"
   id="svg1"
   sodipodi:docname="volume_high.svg"
   inkscape:version="1.4.2 (ebf0e940d0, 2025-05-08)"
   xmlns:inkscape="http://www.inkscape.org/namespaces/inkscape"
   xmlns:sodipodi="http://sodipodi.sourceforge.net/DTD/sodipodi-0.dtd"
   xmlns="http://www.w3.org/2000/svg"
   xmlns:svg="http://www.w3.org/2000/svg">
  <defs
     id="defs1" />
  <sodipodi:namedview
     id="namedview1"
     pagecolor="#ffffff"
     bordercolor="#000000"
     borderopacity="0.25"
     inkscape:showpageshadow="2"
     inkscape:pageopacity="0.0"
     inkscape:pagecheckerboard="0"
     inkscape:deskcolor="#d1d1d1"
     inkscape:zoom="0.32604167"
     inkscape:cx="480"
     inkscape:cy="480"
     inkscape:window-width="1067"
     inkscape:window-height="998"
     inkscape:window-x="0"
     inkscape:window-y="0"
     inkscape:window-maximized="1"
     inkscape:current-layer="svg1" />
  <path
     d="m 726.09093,-479.99999 q 0,-73.34349 -39.71961,-133.80616 -39.71064,-60.47155 -106.55104,-90.30785 -10.37024,-4.84695 -15.2768,-14.47873 -4.90653,-9.62289 -1.10531,-19.52985 4.34939,-10.78581 15.33969,-14.94922 10.99029,-4.17229 22.25916,0.68354 81.29044,36.4587 130.13119,109.73117 Q 780,-569.3846 780,-479.99999 q 0,89.38461 -48.83179,162.65709 -48.84074,73.27247 -130.13119,109.73117 -11.26887,4.85582 -22.25916,0.68354 -10.9903,-4.16341 -15.33969,-14.94922 -3.80122,-9.90697 1.10531,-19.52986 4.90656,-9.63177 15.2768,-14.47872 66.8404,-29.8363 106.55104,-90.30785 39.71962,-60.46266 39.71961,-133.80615 z m -412.67971,89.6598 H 212.48563 q -13.89288,0 -23.19375,-9.18791 Q 180,-408.70714 180,-422.44017 v -113.34421 q 0,-13.73303 9.29187,-22.91209 9.30086,-9.1879 23.19376,-9.1879 h 100.92559 l 107.55751,-106.2513 q 12.92235,-12.76542 29.75377,-5.84121 16.83142,6.93309 16.83142,25.09586 v 351.53745 q 0,18.16278 -16.83142,25.09589 -16.83142,6.92422 -29.75377,-5.84121 z m 315.89683,-88.77209 q 0,33.18302 -13.96477,62.89502 -13.9558,29.70314 -37.67075,49.9787 -7.60244,4.98897 -16.00466,0.95872 -8.39325,-4.03024 -8.39325,-13.31581 v -202.80869 q 0,-9.28556 8.39325,-13.31582 8.40222,-4.03024 16.00466,0.95873 23.71495,20.82595 37.67075,51.14161 13.96477,30.32454 13.96477,63.50754 z"
     id="path1"
     style="stroke-width:0.89316" />
</svg>
